<svg xmlns="http://www.w3.org/2000/svg" viewBox="0 0 301.04 312.76"><defs><style>.cls-1{font-size:80px;font-family:Avenir-Roman, Avenir;}.cls-1,.cls-2,.cls-4{fill:#00a1e9;}.cls-2{font-size:30px;font-family:SourceHanSansSC-Normal-GBpc-EUC-H, Source Han Sans SC;}.cls-3{fill:#2ea7e0;opacity:0.5;}</style></defs><title>BYRIO-Rect</title><g id="图层_2" data-name="图层 2"><g id="图层_1-2" data-name="图层 1"><text class="cls-1" transform="translate(0 244.32)"><tspan xml:space="preserve">BYR   IO</tspan></text><text class="cls-2" transform="translate(5.55 281.32) scale(0.98 1)">北邮互联网与开源社区</text><path class="cls-3" d="M156.44,82.72c18.44,12.43,35.87,24.18,50.13,24.18h0a23.2,23.2,0,0,0,3.55-.27c-18.67-12.74-39-61.84-62.79-79.57C137.14,19.12,81.09,0,81.09,0s21.7,54.5,33.4,58.81S139.65,71.4,156.44,82.72Z"/><path class="cls-4" d="M296,32.15c-99.09,190.9-136,212.85-136,212.85,11.55-20.59,25.22-56,10.59-67.39C154.87,165.45,104,157.14,72.2,138.27S6,55.65,6,55.65s70-1.31,84.42,2.14c41.17,9.08,87.12,59.77,121,53.21s32.77-58.74,42.38-69.14S298,28.25,296,32.15Z"/></g></g></svg>