<?xml version="1.0" encoding="utf-8"?>
<!-- Generator: Adobe Illustrator 22.0.2, SVG Export Plug-In . SVG Version: 6.00 Build 0)  -->
<svg version="1.1" id="图层_1" xmlns="http://www.w3.org/2000/svg" xmlns:xlink="http://www.w3.org/1999/xlink" x="0px" y="0px"
	 viewBox="0 0 1080 1080" style="enable-background:new 0 0 1080 1080;" xml:space="preserve">
<style type="text/css">
	.st0{fill:#FFFFFF;}
	.st1{fill:#282828;}
</style>
<title>Google+</title>
<circle class="st0" cx="540" cy="540" r="540"/>
<path class="st1" d="M721.4,323H356.9c-18.7,0.1-33.9,15.2-33.9,33.9v364.5c0.1,18.7,15.2,33.8,33.9,33.9h364.5
	c18.7,0,33.9-15.2,33.9-33.9V356.9C755.3,338.2,740.1,323,721.4,323z M673.6,566.4H630v163.5H570V566.4h-43.6v-54.5H570v-65.4
	c0-27.3,24-40.7,38.2-43.6c17.3-3.6,68.1-2.7,68.1-2.7v59.9h-38.1c-10.9,0-10.9,10.9-10.9,10.9v40.9H679L673.6,566.4z"/>
</svg>
