<svg id="图层_1" data-name="图层 1" xmlns="http://www.w3.org/2000/svg" viewBox="0 0 1080 1080"><defs><style>.cls-1{fill:#fff;}.cls-2{fill:#282828;}</style></defs><title>Google+</title><circle class="cls-1" cx="540" cy="540" r="540"/><path class="cls-2" d="M612.87,544.88q0,53.48-22.38,95.27a161.37,161.37,0,0,1-63.78,65.32Q485.31,729,431.83,729a184.78,184.78,0,0,1-73.29-14.92q-35-14.91-60.18-40.12t-40.12-60.18a187.53,187.53,0,0,1,0-146.56q14.94-35,40.12-60.18t60.18-40.12A184.92,184.92,0,0,1,431.83,352q73.53,0,126.26,49.38L506.91,450.5q-30.09-29.07-75.08-29.06a112.62,112.62,0,0,0-58.51,15.94,117.1,117.1,0,0,0-42.56,43.33,120.14,120.14,0,0,0,42.56,162.91,112.52,112.52,0,0,0,58.51,15.94A124,124,0,0,0,471,653.64q17.86-5.91,29.45-14.79a107.23,107.23,0,0,0,20.19-20.19,92.19,92.19,0,0,0,12.6-21.34,95.18,95.18,0,0,0,5.53-19h-107V513.5H609.77a168.2,168.2,0,0,1,3.08,31.38ZM835.81,513.5v54H782.07v53.74h-54V567.5H674.33v-54h53.74V459.76h54V513.5Z" transform="translate(0.5)"/></svg>