<svg id="图层_1" data-name="图层 1" xmlns="http://www.w3.org/2000/svg" viewBox="0 0 4248 1080"><defs><style>.cls-1{fill:#fff;}.cls-2{fill:#2a84ff;}.cls-3{fill:#3e4042;}</style></defs><title>openingsource</title><rect class="cls-1" width="4248" height="1080" rx="540" ry="540"/><path class="cls-2" d="M4.22,541.19V734c0,8.69-1.74,12.16-13.9,13.9-106,10.42-212,20.85-319.69,33-55.6,5.21-111.19,12.16-166.79,17.37-17.37,1.74-33-3.47-48.65-5.21-92.08-13.9-185.9-29.53-278-43.43-8.69-1.74-8.69-5.22-8.69-10.43V357c0-10.42,3.47-13.9,15.64-17.37,97.29-27.8,196.32-53.86,293.62-81.66,10.42-3.48,20.85-1.74,33,0,161.58,26.06,321.42,52.12,483,76.44C4.22,336.17,6,339.65,6,346.6,4.22,412.62,4.22,476.9,4.22,541.19Z" transform="translate(1582.5 0)"/><path class="cls-1" d="M-475.31,529V310.11c0-10.42,1.74-13.9,15.64-12.16,137.25,22.58,274.51,43.43,411.76,64.28,12.17,1.74,17.38,5.21,17.38,17.38V699.29c0,10.43-3.48,13.9-17.38,15.64C-133,723.61-218.17,732.3-301.57,741c-53.86,5.21-107.72,10.42-159.84,17.37-10.43,1.74-13.9-1.73-13.9-10.42Z" transform="translate(1582.5 0)"/><path class="cls-1" d="M-510.06,527.29v227.6c0,8.69-1.74,12.16-13.9,10.42-86.87-13.9-175.48-27.8-262.35-41.7-10.42-1.73-12.16-5.21-12.16-12.16V377.87c0-6.95,3.47-10.43,12.16-13.9,86.87-24.32,173.74-48.65,262.35-73,15.64-3.48,15.64-3.48,15.64,8.69C-510.06,376.13-510.06,450.84-510.06,527.29Z" transform="translate(1582.5 0)"/><path class="cls-2" d="M-336.32,560.3c-19.11-6.95-40-12.16-59.07-19.11-8.69-1.74-13.9-26.07-6.95-29.54,3.48-1.74,6.95,0,8.69,0L-305,542.92c5.21,1.74,10.42,5.22,8.68,10.43-1.73,6.95,3.48,15.63-6.95,20.85-33,13.9-66,26.06-99,40-7,3.47-8.69,1.73-8.69-5.21,0-20.85,0-20.85,22.59-29.54,15.64-5.21,33-12.16,48.65-17.37Z" transform="translate(1582.5 0)"/><path class="cls-2" d="M-211.22,648.91h17.37c6.95,0,15.64-3.48,15.64,7,0,8.68,0,13.89-13.9,13.89-29.54,0-59.07,1.74-90.35,3.48-5.21,0-12.16,0-10.42-7s-1.74-13.9,10.42-13.9c24.33-1.74,46.91-3.47,71.24-3.47Z" transform="translate(1582.5 0)"/><path class="cls-2" d="M-732.45,664.54c-8.69,0-17.37-10.42-13.9-17.37C-696,572.46-645.58,497.75-595.19,424.78c1.74-3.48,3.47-8.69,10.42-5.21,5.21,3.47,17.38,5.21,10.43,13.9-19.11,27.79-38.23,57.33-57.34,85.13-31.27,45.17-60.81,90.35-92.08,135.52C-727.24,659.33-729,662.81-732.45,664.54Z" transform="translate(1582.5 0)"/><path class="cls-2" d="M-671.64,688.87c-8.69,0-17.37-12.17-12.16-17.38,36.49-53.86,73-106,109.46-159.84,1.73-3.47,3.47-8.69,8.68-3.47,5.22,3.47,17.38,5.21,10.43,15.63-10.43,15.64-22.59,31.28-33,48.65-26.06,36.49-50.39,74.71-76.45,111.19C-666.43,685.39-666.43,688.87-671.64,688.87Z" transform="translate(1582.5 0)"/><path class="cls-2" d="M-749.82,577.67c-8.69,0-15.64-10.42-12.16-17.37,36.48-52.12,73-106,109.45-158.11,1.74-3.47,3.48-8.68,10.43-5.21,5.21,3.48,15.63,5.21,10.42,15.64-8.69,12.16-15.63,22.58-24.32,34.75-27.8,41.69-57.34,83.39-85.14,123.35C-744.61,574.2-746.35,577.67-749.82,577.67Z" transform="translate(1582.5 0)"/><path class="cls-2" d="M-706.39,369.18c8.69,0,15.64,12.16,12.16,17.38-22.58,33-46.91,67.76-69.49,100.77-1.74,3.47-3.48,8.68-10.43,3.47-5.21-3.47-15.63-5.21-10.42-13.9s12.16-17.37,19.11-26.06c17.38-26.06,34.75-50.38,52.12-76.45C-711.6,372.66-709.86,369.18-706.39,369.18Z" transform="translate(1582.5 0)"/><path class="cls-2" d="M-532.65,600.26c-1.73,1.74-3.47,3.47-3.47,7-22.59,33-45.17,66-69.5,99-1.73,3.48-3.47,10.42-8.68,5.21-5.22-3.47-17.38-5.21-10.43-13.9q36.5-52.11,73-104.24c1.74-1.74,3.48-5.21,7-3.48S-536.12,593.31-532.65,600.26Z" transform="translate(1582.5 0)"/><path d="M256.37,546.6c0-22.52,2.78-35.31,2.78-55.62,0-11.67-6.13-23.35-27-23.91V442.88c20.85-.29,27-12.23,27-23.64,0-20.3-2.78-33.37-2.78-55.63,0-33.92,12.23-44.22,39.48-44.22h18.08v21.7h-6.39c-14.48,0-18.09,5.84-18.09,24.2,0,17.51,1.39,33.09,1.39,52.83,0,23.08-6.95,32.55-22.24,36.16v1.39c15.29,3.62,22.24,13.34,22.24,36.16,0,19.73-1.39,35.31-1.39,52.83,0,18.36,3.61,23.91,18.09,23.91h6.39v22.26H295.85C268.6,590.83,256.37,580.26,256.37,546.6Z" transform="translate(1582.5 0)"/><path d="M662.32,454h-57V567.18H570.54V454H504.91c-5,41.45-20.58,83.72-69,114-5.56-7.52-18.35-19.19-26.7-24.76,40.6-24.48,55.62-56.46,60.91-89.28H410.09V422.3h62.84V354.45H419.25V323.3H654v31.15H605.31V422.3h57ZM570.54,422.3V354.45H506.85V422.3Z" transform="translate(1582.5 0)"/><path d="M797.88,436.19c-9.74-7.78-30.59-20-45-28.64l18.62-23.63c14.19,7,35.33,18.36,46.44,25.59Zm24.49,38.11c-10.57,29.76-23.66,61.46-35.89,89l-30.3-17.79c11.4-21.71,27.25-57,38.92-89.27ZM811.24,362.78c-10-8.06-30.87-21.13-45-29.76l18.9-23.91c13.91,7.79,35.6,19.75,46.17,27.25ZM953.89,475.41v60.08c0,14.18-2.22,22-12,26.41-9.45,4.45-22.51,5-39.48,4.74a128.25,128.25,0,0,0-8.62-28.37c9.74.27,20.85.27,24.2.27,3.05,0,4.17-.83,4.17-3.89V475.41h-44V375h37.26a179.76,179.76,0,0,0,6.69-23.63H868.52v47c0,49.22-5,122.65-38.1,168.8-5.83-5.28-19.74-14.18-27.8-17.8,31.15-42.82,33.91-105.94,33.91-151V321.62h173.83v29.76H928.87L960,356.94c-3.62,6.13-7.23,12.24-10.84,18.07h53.1v100.4Zm-41.7,19.47c-8.62,19.75-21.7,42.83-32,57.28-6.13-5-18.63-12.5-25.88-16.11C865.19,523,876,503.77,883,486.26ZM907.45,414h64.24V398.66H907.45Zm0,37.82h64.24V436.19H907.45Zm82.87,31.71c8.91,16.68,21.14,39.21,27,52.84l-30.59,13.35c-5-14.47-16.12-37.82-25-55.35Z" transform="translate(1582.5 0)"/><path d="M1357.84,514.34v33.38H1105.05V514.34H1211V370.57h-90.92V336.09h222.2v34.48h-93.46V514.34Z" transform="translate(1582.5 0)"/><path d="M1705.33,393.93s-.29,10.28-.85,14.46c-5.55,94.84-11.12,131-20.86,142.94-6.66,8.62-13.35,11.69-22.53,12.8-7.77,1.39-19.73,1.66-32.81,1.12-.27-9.18-3.89-22.27-8.89-30.88,10.57,1.12,20.29,1.39,25.3,1.39,4.46,0,7.24-1.11,10-4.72,6.39-6.69,11.69-35.33,15.86-106h-9.74c-17,61.73-46.73,109.57-87.6,139.61a188,188,0,0,0-25-17.8c40.88-25.59,67.86-68.41,82.6-121.81h-15.85c-11.69,34.48-32,63.12-56.73,81.48a167.69,167.69,0,0,0-14.75-11.41l.83,4.45c-29.2,12-61.18,24.75-86.48,34.49L1447,500.45c9.72-2.78,21.12-6.69,34.21-11.13V404.5h-30V373.08h30V310.77H1512v62.31h27.54V404.5H1512v74.25l25.86-9.18,3.07,15c19.19-14.72,34.2-35.59,42.82-59.5H1581c-10.84,0-22.24,1.39-24.76,4.18-2.49-7-9.18-22.54-13.35-30.88,8.08-1.4,18.36-7.5,28.93-14.19a498.88,498.88,0,0,0,45.05-33.37h-73.42V319.68H1652.2l7.23-2.78,23.63,18.63a618.74,618.74,0,0,1-74,58.4Z" transform="translate(1582.5 0)"/><path d="M1800,568.57h6.38c14.18,0,18.08-5.55,18.08-23.91,0-17.52-1.39-33.1-1.39-52.83,0-22.82,7-32.54,22.25-36.16v-1.39c-15.29-3.61-22.25-13.08-22.25-36.16,0-19.74,1.39-35.32,1.39-52.83,0-18.36-3.9-24.2-18.08-24.2H1800v-21.7h18.07c27.25,0,39.48,10.3,39.48,44.22,0,22.26-3,35.33-3,55.63,0,11.41,6.39,23.35,27,23.64v24.19c-20.58.56-27,12.24-27,23.91,0,20.31,3,33.1,3,55.62,0,33.66-12.23,44.23-39.48,44.23H1800Z" transform="translate(1582.5 0)"/><path class="cls-3" d="M216.91,733c0-32,21.36-50.35,45-50.35s45,18.4,45,50.35c0,31.6-21.35,49.84-45,49.84S216.91,764.56,216.91,733Zm69.46,0c0-20.32-9.37-33.86-24.48-33.86-14.93,0-24.32,13.54-24.32,33.86,0,20.14,9.39,33.51,24.32,33.51C277,766.47,286.37,753.1,286.37,733Z" transform="translate(1582.5 0)"/><path class="cls-3" d="M339.75,685h16.32l1.56,10.42h.52c8.34-6.94,18.76-12.84,29.35-12.84,24.31,0,37.86,19.27,37.86,48.61,0,32.83-19.63,51.58-41.16,51.58-8.51,0-17-3.82-25.18-10.76l.52,16.32v30.9H339.75Zm64.94,46.54c0-20-6.42-32.3-22.4-32.3-7.47,0-14.59,3.81-22.75,11.64v46.71c7.47,6.43,14.94,8.68,20.84,8.68C394.27,766.3,404.69,754,404.69,731.57Z" transform="translate(1582.5 0)"/><path class="cls-3" d="M451.82,733c0-31.08,21.18-50.35,43.58-50.35,25.35,0,38.89,18.22,38.89,45.31a52.62,52.62,0,0,1-.86,10.08h-62c1.57,18.23,13,29.17,29.52,29.17,8.51,0,15.81-2.61,22.75-7.13l6.94,12.68a57.94,57.94,0,0,1-32.29,10.08C472.47,782.8,451.82,764.39,451.82,733Zm65.28-8.68c0-16.5-7.46-26-21.36-26-12,0-22.57,9.2-24.48,26Z" transform="translate(1582.5 0)"/><path class="cls-3" d="M566.13,685h16.32l1.56,13.2h.52c8.86-8.52,18.59-15.62,31.61-15.62,20.32,0,29.35,13.54,29.35,37.85v60.08h-20V722.89c0-16.5-4.87-23.1-16.15-23.1-8.86,0-14.94,4.52-23.45,13v67.72H566.13Z" transform="translate(1582.5 0)"/><path class="cls-3" d="M681.15,655.34c0-7.13,5.38-11.81,12.66-11.81s12.86,4.68,12.86,11.81c0,6.94-5.57,11.81-12.86,11.81S681.15,662.28,681.15,655.34ZM683.93,685h19.79v95.51H683.93Z" transform="translate(1582.5 0)"/><path class="cls-3" d="M743.16,685h16.33l1.56,13.2h.52c8.86-8.52,18.58-15.62,31.6-15.62,20.32,0,29.35,13.54,29.35,37.85v60.08h-20V722.89c0-16.5-4.87-23.1-16.14-23.1-8.85,0-14.95,4.52-23.45,13v67.72h-19.8Z" transform="translate(1582.5 0)"/><path class="cls-3" d="M854,798.25c0-8,5.06-15.45,13.91-20.83v-.87c-4.88-2.95-8.69-8-8.69-15.81,0-7.47,5.38-13.88,10.59-17.72v-.69A32.65,32.65,0,0,1,857.32,717c0-21.7,17.19-34.37,37-34.37A39.93,39.93,0,0,1,908.2,685h33.87V700H923.81c3.67,3.82,6.26,10.25,6.26,17.55,0,20.83-15.79,32.81-35.76,32.81a32.93,32.93,0,0,1-13.37-3c-3.14,2.78-5.21,5.56-5.21,10.08,0,5.73,3.81,9.36,16,9.36h17.53c22.58,0,34.39,7,34.39,23.28,0,18.41-19.46,33.34-50,33.34C870.69,823.43,854,814.91,854,798.25Zm70.34-5c0-8-6.26-10.41-17.88-10.41H892.05a60.76,60.76,0,0,1-12.86-1.4c-5.72,4.18-8.15,9-8.15,13.9,0,9.38,9.71,14.93,25.52,14.93C913.22,810.23,924.35,802.07,924.35,793.21Zm-12-76.23c0-12.84-8-20.31-18.07-20.31S876.24,704,876.24,717c0,12.67,8.17,20.5,18.07,20.5S912.38,729.65,912.38,717Z" transform="translate(1582.5 0)"/><path class="cls-2" d="M959.07,769.22l9.38-12.84c8.5,6.77,16.85,10.94,27.1,10.94,11.45,0,16.83-5.56,16.83-12.86,0-8.67-10.76-12.5-21.18-16.49-12.69-4.87-27.26-11.64-27.26-27.78,0-16,12.84-28,33.85-28,12.86,0,23.28,5.21,31.08,11.29l-9.37,12.33c-6.6-4.87-13.37-8.35-21.36-8.35-10.41,0-15.28,5.21-15.28,11.81,0,8.16,9.9,11.3,20.32,15.12,13.37,5,28.13,10.94,28.13,29,0,16-12.69,29-36.29,29C981.82,782.42,968.26,776.87,959.07,769.22Z" transform="translate(1582.5 0)"/><path class="cls-2" d="M1055.14,732.59c0-32,21.37-50.36,45-50.36s45,18.41,45,50.36c0,31.59-21.34,49.83-45,49.83S1055.14,764.18,1055.14,732.59Zm69.46,0c0-20.33-9.37-33.87-24.47-33.87-14.93,0-24.33,13.54-24.33,33.87,0,20.14,9.4,33.51,24.33,33.51C1115.23,766.1,1124.6,752.73,1124.6,732.59Z" transform="translate(1582.5 0)"/><path class="cls-2" d="M1176.75,744.74V684.66h20v57.65c0,16.49,4.68,22.92,16,22.92,8.84,0,14.94-4.17,22.91-14.23V684.66h20v95.51h-16.32l-1.56-14.41h-.53c-8.69,10.06-18,16.66-31.25,16.66C1185.61,782.42,1176.75,769.05,1176.75,744.74Z" transform="translate(1582.5 0)"/><path class="cls-2" d="M1295.08,684.66h16.32l1.56,17.19h.51c6.79-12.32,16.87-19.62,27.12-19.62a23.69,23.69,0,0,1,10.75,2.09l-3.64,17.36a28.4,28.4,0,0,0-9.56-1.56c-7.8,0-17.18,5.37-23.27,20.49v59.56h-19.79Z" transform="translate(1582.5 0)"/><path class="cls-2" d="M1366.85,732.59c0-32,22-50.36,47.22-50.36,12.17,0,21,4.85,28,10.95l-9.88,13c-5.23-4.68-10.6-7.47-17.2-7.47-16,0-27.44,13.54-27.44,33.87,0,20.14,10.94,33.51,26.93,33.51,8,0,15.1-3.82,20.83-8.69l8.15,13.2a46.46,46.46,0,0,1-30.9,11.81C1386.64,782.42,1366.85,764.18,1366.85,732.59Z" transform="translate(1582.5 0)"/><path class="cls-2" d="M1461.53,732.59c0-31.08,21.19-50.36,43.59-50.36,25.36,0,38.9,18.22,38.9,45.32a51.68,51.68,0,0,1-.88,10.08h-62c1.58,18.22,13,29.17,29.52,29.17,8.52,0,15.82-2.62,22.77-7.13l6.93,12.67a57.89,57.89,0,0,1-32.29,10.08C1482.19,782.42,1461.53,764,1461.53,732.59Zm65.29-8.69c0-16.49-7.47-26-21.35-26-12,0-22.58,9.19-24.5,26Z" transform="translate(1582.5 0)"/><path class="cls-2" d="M1573.24,768.53c0-8.16,5.9-14.24,13.37-14.24s13.37,6.08,13.37,14.24-5.91,13.89-13.37,13.89S1573.24,776.69,1573.24,768.53Z" transform="translate(1582.5 0)"/><path class="cls-2" d="M1628,732.59c0-32,21.36-50.36,45-50.36s45,18.41,45,50.36c0,31.59-21.36,49.83-45,49.83S1628,764.18,1628,732.59Zm69.47,0c0-20.33-9.37-33.87-24.49-33.87-14.93,0-24.31,13.54-24.31,33.87,0,20.14,9.38,33.51,24.31,33.51C1688.07,766.1,1697.44,752.73,1697.44,732.59Z" transform="translate(1582.5 0)"/><path class="cls-2" d="M1750.81,684.66h16.33l1.56,17.19h.51c6.78-12.32,16.86-19.62,27.11-19.62a23.76,23.76,0,0,1,10.76,2.09l-3.65,17.36a28.38,28.38,0,0,0-9.55-1.56c-7.81,0-17.19,5.37-23.28,20.49v59.56h-19.79Z" transform="translate(1582.5 0)"/><path class="cls-2" d="M1822.4,797.88c0-8,5-15.46,13.89-20.84v-.86c-4.87-2.95-8.68-8-8.68-15.81,0-7.47,5.39-13.88,10.58-17.72V742a32.71,32.71,0,0,1-12.48-25.35c0-21.7,17.17-34.38,37-34.38a39.77,39.77,0,0,1,13.88,2.43h33.87v14.93H1892.2c3.65,3.82,6.26,10.25,6.26,17.54,0,20.84-15.81,32.82-35.77,32.82a33.17,33.17,0,0,1-13.37-3c-3.13,2.78-5.22,5.56-5.22,10.07,0,5.74,3.83,9.37,16,9.37h17.54c22.57,0,34.38,7,34.38,23.28,0,18.41-19.44,33.34-50,33.34C1839.08,823.06,1822.4,814.54,1822.4,797.88Zm70.33-5c0-8-6.25-10.42-17.89-10.42h-14.42a60.44,60.44,0,0,1-12.84-1.39c-5.72,4.17-8.16,9-8.16,13.9,0,9.38,9.72,14.93,25.51,14.93C1881.61,809.86,1892.73,801.7,1892.73,792.84Zm-12-76.23c0-12.85-8-20.31-18.06-20.31s-18.07,7.29-18.07,20.31c0,12.67,8.17,20.49,18.07,20.49S1880.75,729.28,1880.75,716.61Z" transform="translate(1582.5 0)"/></svg>