<?xml version="1.0" encoding="utf-8"?>
<!-- Generator: Adobe Illustrator 22.0.2, SVG Export Plug-In . SVG Version: 6.00 Build 0)  -->
<svg version="1.1" id="图层_1" xmlns="http://www.w3.org/2000/svg" xmlns:xlink="http://www.w3.org/1999/xlink" x="0px" y="0px"
	 viewBox="0 0 1080 1080" style="enable-background:new 0 0 1080 1080;" xml:space="preserve">
<style type="text/css">
	.st0{fill:#FFFFFF;}
	.st1{fill:#282828;}
</style>
<title>Google+</title>
<circle class="st0" cx="540" cy="540" r="540"/>
<path class="st1" d="M754.9,620.3c-10-58.4-52-96.7-52-96.7c6-53-16-62.5-16-62.5C682.3,297.1,542,300,539,300
	c-3-0.1-143.3-3-147.9,161.1c0,0-22,9.4-16,62.4c0,0-42,38.3-52,96.7c0,0-5.3,98.7,48,12.1c0,0,12,32.9,34,62.5
	c0,0-39.3,13.4-36,48.3c0,0-1.3,38.9,84,36.3c0,0,60-4.7,78-30.2H547c18,25.5,78,30.2,78,30.2c85.3,2.7,84-36.3,84-36.3
	c3.3-34.9-36-48.3-36-48.3c22-29.5,34-62.5,34-62.5C760.3,719,755,620.3,754.9,620.3L754.9,620.3z"/>
</svg>
