<svg id="图层_1" data-name="图层 1" xmlns="http://www.w3.org/2000/svg" viewBox="0 0 1080 1080"><defs><style>.cls-1{fill:#fff;}.cls-2{fill:#282828;}</style></defs><title>Telegram</title><circle class="cls-1" cx="540" cy="540" r="540"/><path class="cls-2" d="M620,662.09l39.38-185.62c3.48-16.34-5.9-22.77-16.61-18.76l-231.43,89.2c-15.81,6.15-15.53,15-2.68,19l59.2,18.48,137.41-86.52c6.43-4.29,12.33-1.87,7.51,2.42L501.61,600.74l-4.29,61.08c6.16,0,8.85-2.68,12.05-5.9l28.92-27.86,60,44.2c11,6.15,18.76,3,21.71-10.19ZM781.5,552c0,132.58-107.42,240-240,240s-240-107.42-240-240,107.42-240,240-240S781.5,419.42,781.5,552Z" transform="translate(0.5)"/></svg>