<?xml version="1.0" encoding="utf-8"?>
<!-- Generator: Adobe Illustrator 22.0.2, SVG Export Plug-In . SVG Version: 6.00 Build 0)  -->
<svg version="1.1" id="图层_1" xmlns="http://www.w3.org/2000/svg" xmlns:xlink="http://www.w3.org/1999/xlink" x="0px" y="0px"
	 viewBox="0 0 1080 1080" style="enable-background:new 0 0 1080 1080;" xml:space="preserve">
<style type="text/css">
	.st0{fill:#FFFFFF;}
	.st1{fill:#282828;}
</style>
<title>Google+</title>
<circle class="st0" cx="540" cy="540" r="540"/>
<path class="st1" d="M786.3,386.6c-13.8,20.3-31,38-50.8,52.4c0.2,2.9,0.3,7.3,0.3,13.2c-0.1,27.6-4.1,55-11.9,81.4
	c-8.2,27.6-20.4,53.9-36.2,77.9c-16,24.7-35.5,46.9-57.8,66c-22.4,19.1-49.4,34.4-80.9,45.8c-31.6,11.4-65.3,17.1-101.3,17.2
	c-56.7,0-108.5-15.2-155.6-45.5c8.1,0.9,16.3,1.3,24.5,1.3c47.1,0,89-14.4,125.8-43.3c-43.3-0.8-81.4-29-94.8-70.3
	c6.3,1,12.7,1.5,19.1,1.6c9,0,18-1.2,26.7-3.5c-22.9-4.5-43.5-16.9-58.2-35c-15.3-18.5-23-40-23-64.4v-1.3
	c14,7.9,29.7,12.3,45.8,12.9c-13.8-9.1-25.1-21.5-32.9-36c-16.9-31.1-16.3-68.8,1.6-99.4c25.2,31.1,56.7,56.6,92.4,74.8
	c36.1,18.7,75.9,29.3,116.5,31.2c-1.6-7.6-2.5-15.4-2.5-23.2c0-28,9.9-51.9,29.6-71.7s43.7-29.6,71.7-29.6c29.3,0,53.9,10.7,74,32
	c22.7-4.4,44.5-12.6,64.3-24.5c-7.7,24-22.6,42.6-44.5,55.8C748.2,400.1,767.8,394.8,786.3,386.6L786.3,386.6z"/>
</svg>
