<svg id="图层_1" data-name="图层 1" xmlns="http://www.w3.org/2000/svg" viewBox="0 0 1080 1080"><defs><style>.cls-1{fill:#fff;}.cls-2{fill:#282828;}</style></defs><title>WeChat</title><circle class="cls-1" cx="540" cy="540" r="540"/><path class="cls-2" d="M816,606.37c0-76.49-76.48-138.77-162.51-138.77-91.15,0-162.72,62.28-162.72,138.77,0,76.68,71.57,138.74,162.72,138.74,19.07,0,38.36-4.86,57.41-9.51l52.53,28.8-14.37-47.86C787.39,687.73,816,649.39,816,606.37Zm-215.29-24c-9.51,0-19.05-9.52-19.05-19.07s9.54-19.05,19.05-19.05c14.42,0,24,9.55,24,19.05S615.13,582.42,600.71,582.42Zm105.33,0c-9.52,0-19-9.52-19-19.07s9.52-19.05,19-19.05c14.4,0,23.94,9.55,23.94,19.05S720.21,582.42,706,582.42Z" transform="translate(0.5)"/><path class="cls-2" d="M637.7,450.69a185.34,185.34,0,0,1,18.82,1.08C639.66,373,555.5,314.6,459.4,314.6,352.07,314.6,264,387.73,264,480.76c0,53.67,29.22,97.8,78.12,132l-19.47,58.83L391,637.21C415.47,642,435.15,647,459.4,647a178.71,178.71,0,0,0,18.19-.84,142.68,142.68,0,0,1-6.06-40.9C471.52,519.93,544.89,450.69,637.7,450.69Zm-105.18-53c14.71,0,24.44,9.74,24.44,24.46s-9.74,24.43-24.44,24.43-29.41-9.74-29.41-24.43C503.33,407.41,518,397.68,532.52,397.68ZM395.78,446.55c-14.72,0-29.42-9.73-29.42-24.44s14.71-24.45,29.42-24.45,24.47,9.75,24.47,24.45C420.24,436.62,410.51,446.55,395.78,446.55Z" transform="translate(0.5)"/></svg>