<svg id="图层_1" data-name="图层 1" xmlns="http://www.w3.org/2000/svg" viewBox="0 0 1080 1080"><defs><style>.cls-1{fill:#fff;}.cls-2{fill:#282828;}</style></defs><title>Weibo</title><circle class="cls-1" cx="540" cy="540" r="540"/><path class="cls-2" d="M674.74,523.28c-9-.84-17.16-5.8-11.19-16.06s17-40.13-4.2-61.16-67.55-13.12-100.36.51-31,4.12-29.94-5.22c1.09-9.84,18.76-64.85-35.25-71.5-70.74-8.66-161.5,78.91-193.55,129.38C251.8,575.44,259.45,627,259.45,627h.34c5.8,71.16,110.61,127.86,239.06,127.86,110.45,0,203.48-42,231-99a3.67,3.67,0,0,1,.33-.67,85.65,85.65,0,0,0,6.39-18.84c3.87-15.31,6.82-37.52-.42-59.39-12.87-38.69-52.4-52.83-61.4-53.67ZM483,723.73c-91.43,0-165.62-49.12-165.62-109.69S391.43,504.36,483,504.36,648.58,553.48,648.58,614,574.39,723.73,483,723.73ZM708.13,480.64a12.77,12.77,0,0,0,5.22,1.09,13.39,13.39,0,0,0,12.36-8.24A66.2,66.2,0,0,0,639,386.68a13.47,13.47,0,1,0,10.51,24.81,39.82,39.82,0,0,1,15.31-3.11,39.32,39.32,0,0,1,39.28,39.28A38.22,38.22,0,0,1,701,463a13.37,13.37,0,0,0,7.15,17.66Z" transform="translate(0.5)"/><path class="cls-2" d="M664,298.86a156.63,156.63,0,0,0-44.24,6.39,20.17,20.17,0,1,0,11.44,38.69,116.39,116.39,0,0,1,32.8-4.71A115.07,115.07,0,0,1,778.88,454.14,117.75,117.75,0,0,1,774,487.53a20.21,20.21,0,0,0,38.69,11.69,156.17,156.17,0,0,0,6.65-45.08c-.09-85.63-69.73-155.28-155.37-155.28ZM467.64,544.4c-48.78,0-88.32,34.57-88.32,77.3S418.86,699,467.64,699,556,664.43,556,621.7,516.43,544.4,467.64,544.4ZM438.79,671.92a31,31,0,1,1,31-31A31,31,0,0,1,438.79,671.92Zm57.87-55.77c-3.7,6.48-11.18,9.17-16.65,6s-6.81-10.93-3.11-17.41,11.18-9.17,16.65-6S500.36,609.76,496.66,616.15Z" transform="translate(0.5)"/></svg>