<?xml version="1.0" encoding="UTF-8" standalone="no"?>
<svg version="1.1" baseProfile="full" width="480" height="480" xmlns="http://www.w3.org/2000/svg">
<polygon fill="#FFFFFF" stroke="none" stroke-width="0.000000" stroke-linecap="butt" stroke-linejoin="miter" points="240.000000 0.000000, 447.846097 120.000000, 447.846097 360.000000, 240.000000 480.000000, 32.153903 360.000000, 32.153903 120.000000" />
<polyline fill="none" stroke="#000000" stroke-width="22.080000" stroke-linecap="butt" stroke-linejoin="miter" points="433.229182 147.560920, 240.000000 36.000000, 63.330818 138.000000, 63.330818 191.760000, 416.669182 288.240000, 416.669182 342.000000, 240.000000 444.000000, 46.770818 332.439080" />
<polygon fill="none" stroke="#FFFFFF" stroke-width="20.136915" stroke-linecap="butt" stroke-linejoin="miter" points="240.000000 11.626053, 437.777640 125.813027, 437.777640 354.186973, 240.000000 468.373947, 42.222360 354.186973, 42.222360 125.813027" />
<path fill="#F44336" d="M 240.000000 0.000000 L 447.846097 120.000000 A 240.000000 240.000000 0 0 0 240.000000 0.000000" />
<path fill="#FF9800" d="M 447.846097 120.000000 L 447.846097 360.000000 A 240.000000 240.000000 0 0 0 447.846097 120.000000" />
<path fill="#4CAF50" d="M 447.846097 360.000000 L 240.000000 480.000000 A 240.000000 240.000000 0 0 0 447.846097 360.000000" />
<path fill="#FFEB3B" d="M 240.000000 480.000000 L 32.153903 360.000000 A 240.000000 240.000000 0 0 0 240.000000 480.000000" />
<path fill="#2196F3" d="M 32.153903 360.000000 L 32.153903 120.000000 A 240.000000 240.000000 0 0 0 32.153903 360.000000" />
<path fill="#9C27B0" d="M 32.153903 120.000000 L 240.000000 0.000000 A 240.000000 240.000000 0 0 0 32.153903 120.000000" />
</svg>
